# xmcd
#
# Track frame offsets:
#	150
#	21817
#	42870
#	65300
#	95018
#	112483
#	126689
#	143914
#	153247
#	170139
#	182650
#	210209
#
# Disc length: 3126 seconds
#
# Revision: 0
# Processed by: cddbd v1.5.2PL0 Copyright (c) Steve Scherf et al.
# Submitted via: audiograbber 1.83.01
#
DISCID=af0c340c
DTITLE=Philm - Fire From The Evening Sun
DYEAR=2014
DGENRE=Metal
TTITLE0=1. Train
TTITLE1=2. Fire From The Evening Sun
TTITLE2=3. Lady of the Lake
TTITLE3=4. Lions Pit
TTITLE4=5. Silver Queen Master
TTITLE5=6. We Sale At Dawn
TTITLE6=7. Omnisience
TTITLE7=8. Fan Boy
TTITLE8=9. Luxhaven
TTITLE9=10. Blue dragon
TTITLE10=11. Turn in the Sky
TTITLE11=12. Corner Girl
EXTD=
EXTT0=
EXTT1=
EXTT2=
EXTT3=
EXTT4=
EXTT5=
EXTT6=
EXTT7=
EXTT8=
EXTT9=
EXTT10=
EXTT11=
PLAYORDER=
